<svg width="25" height="24" viewBox="0 0 25 24" fill="none" xmlns="http://www.w3.org/2000/svg">
<path d="M3.60014 18.75V8.06252C3.60014 6.71986 4.1335 5.43219 5.08291 4.48279C6.03231 3.53338 7.31998 3.00002 8.66264 3.00002H16.5376C17.2025 3.00002 17.8608 3.13096 18.475 3.38538C19.0892 3.63979 19.6473 4.01269 20.1174 4.48279C20.5875 4.95288 20.9604 5.51097 21.2148 6.12518C21.4692 6.73939 21.6001 7.3977 21.6001 8.06252V15.9375C21.6001 16.6023 21.4692 17.2606 21.2148 17.8748C20.9604 18.4891 20.5875 19.0471 20.1174 19.5172C19.6473 19.9873 19.0892 20.3602 18.475 20.6147C17.8608 20.8691 17.2025 21 16.5376 21H5.85014C5.2534 21 4.6811 20.763 4.25915 20.341C3.83719 19.919 3.60014 19.3468 3.60014 18.75V18.75Z" stroke="white" stroke-width="2" stroke-linecap="round" stroke-linejoin="round"/>
<path d="M8.585 11.7408H12.5225C13.1192 11.7408 13.6915 11.9779 14.1135 12.3998C14.5354 12.8218 14.7725 13.3941 14.7725 13.9908C14.7725 14.5875 14.5354 15.1598 14.1135 15.5818C13.6915 16.0037 13.1192 16.2408 12.5225 16.2408H8.585V8.3658C8.585 8.06743 8.70353 7.78128 8.9145 7.5703C9.12548 7.35933 9.41163 7.2408 9.71 7.2408H11.3975C11.9942 7.2408 12.5665 7.47785 12.9885 7.89981C13.4104 8.32177 13.6475 8.89406 13.6475 9.4908C13.6475 10.0875 13.4104 10.6598 12.9885 11.0818C12.5665 11.5037 11.9942 11.7408 11.3975 11.7408H9.71M17.585 16.2408H17.5962" stroke="white" stroke-width="2" stroke-linecap="round" stroke-linejoin="round"/>
</svg>
