<svg width="24" height="24" viewBox="0 0 24 24" fill="none" xmlns="http://www.w3.org/2000/svg">
<path d="M18.8499 3.94421C19.7434 3.94429 20.5999 4.2997 21.2317 4.93152L21.3469 5.05261C21.9065 5.67063 22.2189 6.4757 22.219 7.31335V16.6864C22.219 17.5243 21.9068 18.33 21.3469 18.9481L21.2317 19.0692C20.5999 19.7008 19.7432 20.0555 18.8499 20.0555H5.15063C4.31314 20.0555 3.50786 19.7438 2.88989 19.1844L2.7688 19.0692C2.13691 18.4373 1.78149 17.58 1.78149 16.6864V7.31335C1.78157 6.41983 2.13698 5.56334 2.7688 4.93152L2.88989 4.81628C3.50791 4.25671 4.31298 3.94428 5.15063 3.94421H18.8499ZM3.47388 16.6864C3.47388 17.1313 3.6505 17.5583 3.96509 17.8729C4.27957 18.1872 4.70601 18.3641 5.15063 18.3641H18.8499C19.2945 18.3641 19.7209 18.1872 20.0354 17.8729C20.35 17.5583 20.5266 17.1313 20.5266 16.6864V9.96179H3.47388V16.6864ZM17.7678 14.038C17.9922 14.038 18.2078 14.1274 18.3665 14.286L18.4221 14.3475C18.5456 14.4981 18.6144 14.6873 18.6145 14.8837C18.6145 15.08 18.5455 15.2693 18.4221 15.4198L18.3665 15.4823C18.2078 15.641 17.9922 15.7303 17.7678 15.7303H15.6047C15.4084 15.7302 15.2191 15.6614 15.0686 15.538L15.0071 15.4823C14.8484 15.3236 14.759 15.108 14.759 14.8837C14.7591 14.6594 14.8485 14.4446 15.0071 14.286L15.0686 14.2294C15.2191 14.106 15.4085 14.0381 15.6047 14.038H17.7678ZM5.15063 5.6366C4.70585 5.63667 4.27961 5.81329 3.96509 6.12781C3.65057 6.44233 3.47395 6.86857 3.47388 7.31335V8.27039H20.5266V7.31335C20.5265 6.86857 20.3499 6.44233 20.0354 6.12781C19.7209 5.81329 19.2946 5.63667 18.8499 5.6366H5.15063Z" fill="white" stroke="white" stroke-width="0.25"/>
</svg>
