<svg width="25" height="24" viewBox="0 0 25 24" fill="none" xmlns="http://www.w3.org/2000/svg">
<path d="M16.3562 7.64024C16.3562 7.54033 16.2745 7.45858 16.1746 7.45858H14.9371C14.8689 7.45858 14.8054 7.49719 14.7758 7.5585L12.8525 11.3915H12.7776L10.8543 7.5585C10.8393 7.52861 10.8162 7.50346 10.7878 7.48583C10.7593 7.4682 10.7266 7.45877 10.6931 7.45858H9.42831C9.39879 7.45858 9.36927 7.4654 9.34202 7.48129C9.25346 7.52898 9.22167 7.64024 9.26936 7.72653L11.6286 12.0772H10.3343C10.2344 12.0772 10.1527 12.159 10.1527 12.2589V12.8742C10.1527 12.9741 10.2344 13.0559 10.3343 13.0559H12.0601V13.9415H10.3343C10.2344 13.9415 10.1527 14.0232 10.1527 14.1231V14.7385C10.1527 14.8384 10.2344 14.9201 10.3343 14.9201H12.0601V16.3598C12.0601 16.4597 12.1418 16.5414 12.2417 16.5414H13.3748C13.4747 16.5414 13.5565 16.4597 13.5565 16.3598V14.9179H15.289C15.3889 14.9179 15.4707 14.8361 15.4707 14.7362V14.1209C15.4707 14.0209 15.3889 13.9392 15.289 13.9392H13.5565V13.0536H15.289C15.3889 13.0536 15.4707 12.9719 15.4707 12.872V12.2566C15.4707 12.1567 15.3889 12.0749 15.289 12.0749H13.9811L16.3358 7.72426C16.3472 7.69928 16.3562 7.66976 16.3562 7.64024ZM4.75972 11.8229C4.80237 9.75339 5.64464 7.78077 7.10991 6.31869C7.84789 5.58071 8.70622 4.9994 9.66219 4.59522C10.6522 4.17741 11.7036 3.96396 12.7867 3.96396C13.8721 3.96396 14.9234 4.17513 15.9112 4.59522C16.8672 4.9994 17.7255 5.58071 18.4635 6.31869C18.6905 6.54576 18.9017 6.78418 19.097 7.03169L17.9616 7.91954C17.9346 7.94046 17.914 7.96859 17.9022 8.0007C17.8905 8.0328 17.888 8.06758 17.8951 8.10103C17.9022 8.13447 17.9186 8.16523 17.9425 8.18976C17.9663 8.2143 17.9965 8.23161 18.0298 8.23971L21.5902 9.10939C21.7038 9.13664 21.815 9.05035 21.815 8.93455L21.8332 5.26735C21.8332 5.11521 21.6584 5.02892 21.5403 5.12429L20.4549 5.97354C18.6746 3.69601 15.9021 2.23595 12.789 2.23595C7.46414 2.23595 3.13389 6.50716 3.03625 11.8138C3.03564 11.838 3.0399 11.8622 3.04875 11.8847C3.05761 11.9073 3.07089 11.9279 3.08782 11.9452C3.10475 11.9626 3.12498 11.9763 3.14733 11.9858C3.16967 11.9952 3.19367 12 3.21791 12H4.58034C4.67798 12 4.75745 11.9205 4.75972 11.8229ZM22.3827 12H21.0203C20.9227 12 20.8409 12.0795 20.8386 12.1771C20.796 14.2466 19.9537 16.2193 18.4884 17.6813C17.7572 18.4156 16.8904 19.0009 15.9362 19.4048C14.9461 19.8226 13.8948 20.0361 12.8117 20.0361C11.7285 20.0361 10.6749 19.8249 9.68717 19.4048C8.73289 19.0009 7.86609 18.4156 7.13489 17.6813C6.90782 17.4543 6.69664 17.2158 6.50136 16.9683L7.63444 16.0805C7.66149 16.0596 7.68208 16.0314 7.69385 15.9993C7.70562 15.9672 7.70809 15.9324 7.70097 15.899C7.69386 15.8655 7.67744 15.8348 7.65362 15.8103C7.6298 15.7857 7.59954 15.7684 7.56632 15.7603L4.00584 14.8906C3.89231 14.8634 3.78104 14.9497 3.78104 15.0655L3.76288 18.7372C3.76288 18.8894 3.93772 18.9756 4.0558 18.8803L5.1412 18.031C6.92598 20.304 9.69852 21.7641 12.8117 21.7641C18.1365 21.7641 22.4667 17.4929 22.5644 12.1862C22.565 12.162 22.5607 12.1379 22.5519 12.1153C22.543 12.0927 22.5297 12.0722 22.5128 12.0548C22.4959 12.0375 22.4756 12.0237 22.4533 12.0143C22.431 12.0048 22.407 12 22.3827 12Z" fill="white"/>
</svg>
